<svg xmlns="http://www.w3.org/2000/svg" viewBox="0 0 417.4 389.19"><defs><style>.cls-1{fill:none;stroke:#1a5d57;stroke-linecap:round;stroke-miterlimit:10;stroke-width:17px;}</style></defs><g id="Layer_2" data-name="Layer 2"><g id="Layer_1-2" data-name="Layer 1"><path class="cls-1" d="M229.47,45.17,30.53,245.27A80.86,80.86,0,0,0,9.71,286.05c-6.7,37.14,16.5,64.33,19.14,67.31,20.09,22.78,46.22,26.25,51.48,26.85,31.27,3.53,54.21-13.44,62.57-19.58a98.35,98.35,0,0,0,16.17-14.9c41.85-48,89.76-90.46,133.66-136.64,21.76-22.89,53.06-54.89,92.79-92.36a67.21,67.21,0,0,0,20.14-30.41c2.16-6.91,8.92-32.62-7.37-54.72C380.1,6.92,349.1,8.33,344.66,8.61c-17.33,1.09-30,8.8-34.6,12.78-7.05,6-11.77,12.81-16.48,17.44-62,61-123.16,122.87-184.73,184.31a39.22,39.22,0,0,0-14,21.71c-4.48,19.69,9.51,34.58,11.07,36.18,14.86,15.29,35.35,12.33,37.88,11.92,14.71-2.39,24.22-12.56,27.67-16.18,21.18-22.26,73.19-74.61,142.68-145.61"/></g></g></svg>