<svg xmlns="http://www.w3.org/2000/svg" viewBox="0 0 129.78 103.14"><defs><style>.cls-1,.cls-2,.cls-3,.cls-4{fill:none;stroke:#1a5d57;stroke-miterlimit:10;}.cls-1,.cls-2,.cls-3{stroke-linecap:round;}.cls-1,.cls-4{stroke-width:4px;}.cls-2{stroke-width:3px;}.cls-3{stroke-width:5px;}</style></defs><g id="Layer_2" data-name="Layer 2"><g id="Layer_1-2" data-name="Layer 1"><path class="cls-1" d="M2.38,26.11Q2.25,56.68,2.1,87.26a10.61,10.61,0,0,0,0,2.88c.67,5,5,9.14,9.5,10.51a12.3,12.3,0,0,0,2.62.49h101a11.32,11.32,0,0,0,3-.48c6.33-1.88,9-8.68,9.57-10.2V29.05a10.73,10.73,0,0,0-.16-1.75c-1.2-6.65-8.62-10.24-11-11.27l-99-.12a13.58,13.58,0,0,0-2.74,0c-8.53.87-12.39,9.44-12.45,9.6s-.08.31-.1.41a1.6,1.6,0,0,0,0,.17h0"/><path class="cls-2" d="M21.26,14.66v-8a4.83,4.83,0,0,1,.53-2.22c1.3-2.5,4.41-2.82,4.71-2.84l22.41-.09a4.39,4.39,0,0,1,1.51.17c2.64.81,3.54,4,3.64,4.36l.09,8.89"/><path class="cls-3" d="M97,33.11h14.16"/><circle class="cls-4" cx="64.89" cy="58.18" r="22.5"/></g></g></svg>