<svg xmlns="http://www.w3.org/2000/svg" viewBox="0 0 220.54 168.4"><defs><style>.cls-1{fill:none;stroke:#1a5d57;stroke-linecap:round;stroke-miterlimit:10;stroke-width:9px;}</style></defs><g id="Layer_2" data-name="Layer 2"><g id="Layer_1-2" data-name="Layer 1"><path class="cls-1" d="M9.85,7.9l95.56,97c1.19,1.76,3.39,4.46,6.31,4.58,3.44.15,6.12-3.36,6.88-4.3C123.72,98.85,160.12,62.37,213,10c-.1-.17-.26-.42-.46-.7A13.9,13.9,0,0,0,208.94,6c-2.73-1.69-6.51-1.46-6.89-1.44-5.41.3-81.48.33-186.69.29a6.69,6.69,0,0,0-3.27.81,7,7,0,0,0-2,1.68A34,34,0,0,0,5.85,14c-1.48,4-1.85,60.53-.58,137.89a10.39,10.39,0,0,0,1.16,3.77,11.5,11.5,0,0,0,3.49,3.78,24.9,24.9,0,0,0,7,3.48c5,1.38,83.25,1.21,190.14-.29a10,10,0,0,0,5.81-2.32c3-2.72,3.15-7.06,3.19-9,.16-7.69-.55-62.69-.79-138-.49-.82-.77-2.57-2.14-2.75"/></g></g></svg>