<svg xmlns="http://www.w3.org/2000/svg" viewBox="0 0 32 32"><defs><style>.cls-1{fill:#1a5d57;}.cls-2{fill:#fff;}</style></defs><g id="Layer_2" data-name="Layer 2"><g id="Layer_1-2" data-name="Layer 1"><circle class="cls-1" cx="16" cy="16" r="16"/><path class="cls-2" d="M10.2,10.13l15.15,5.69a.52.52,0,0,1,.47.53c0,.25-.39.41-.53.47-1.08.47-13.12,4.4-15.23,5.09a.19.19,0,0,1-.12,0,.19.19,0,0,1,0-.18c0-.16,0-1.53,0-3.84a2.22,2.22,0,0,1,.28-.69,1.2,1.2,0,0,1,.57-.29c.43-.12,1.47-.45,2.87-.87l-2.94-1.06a1.54,1.54,0,0,1-.43-.33A1.42,1.42,0,0,1,9.9,14V10.19a.22.22,0,0,1,.1-.09A.25.25,0,0,1,10.2,10.13Z"/></g></g></svg>