<svg xmlns="http://www.w3.org/2000/svg" viewBox="0 0 195.88 196.72"><defs><style>.cls-1,.cls-3,.cls-5{fill:none;}.cls-1,.cls-2,.cls-3,.cls-5{stroke:#1a5d57;stroke-miterlimit:10;}.cls-1,.cls-2,.cls-3{stroke-width:2px;}.cls-2,.cls-4{fill:#1a5d57;}.cls-3{stroke-linecap:round;}.cls-5{stroke-width:8px;}</style></defs><g id="Layer_2" data-name="Layer 2"><g id="Layer_1-2" data-name="Layer 1"><path class="cls-1" d="M173,105.15a69.28,69.28,0,0,0,.44-7.29v-1a79.16,79.16,0,0,0-3.37-22.3,76.74,76.74,0,0,0-13.34-24.89"/><path class="cls-1" d="M41.05,47.65C34.92,55.2,22.61,73.3,22.44,96.86v1a69.28,69.28,0,0,0,.44,7.29"/><path class="cls-1" d="M147.4,40c-9.52-9.8-26.66-14.81-26.66-14.81a80.86,80.86,0,0,0-22.3-3.37h-1C72.6,22,53.77,35.78,47.06,41.44"/><path class="cls-1" d="M118.24,70.78l.17.13.29.22c.27.14.68-.08,1.18-.35l.09,0c1.2-.69,25.76-25.93,27.62-27.15a1.72,1.72,0,0,0,.72-.85,2,2,0,0,0-.1-1.37A4.17,4.17,0,0,0,147.4,40"/><path class="cls-1" d="M77.07,71.21a33.87,33.87,0,0,1,20.87-7.15h0a35.86,35.86,0,0,1,20.3,6.72"/><path class="cls-1" d="M70.52,118.17a33.81,33.81,0,0,1-6.58-20.11h0a33.8,33.8,0,0,1,1.53-10.12A35.6,35.6,0,0,1,70.54,77.8"/><path class="cls-1" d="M118.13,125.41a33.8,33.8,0,0,1-20.19,6.65h0a33.85,33.85,0,0,1-20.51-6.88"/><path class="cls-1" d="M125.14,77.8c5,7.16,6.39,15.49,6.8,20.26h0a33.78,33.78,0,0,1-6.86,20.47"/><rect class="cls-1" x="71.44" y="70.86" width="53" height="53" rx="26.5"/><path class="cls-1" d="M14.29,105.15q-.34-3.86-.35-7.79h0a84,84,0,0,1,84-84h0a84,84,0,0,1,84,84h0c0,2.61-.12,5.2-.36,7.75"/><path class="cls-2" d="M15.13,80.21,5,77.34a4.25,4.25,0,0,1-.74-5.26A4.47,4.47,0,0,1,7.9,70.27L17,72.57"/><path class="cls-2" d="M23.23,59.28,14,54.17a4.26,4.26,0,0,1,.47-5.29,4.45,4.45,0,0,1,4-.92l8.36,4.31"/><path class="cls-2" d="M36.14,41.32l-7.91-7a4.28,4.28,0,0,1,1.63-5.05,4.46,4.46,0,0,1,4.12,0l7.19,6.05"/><path class="cls-2" d="M52.84,26.82,47,18a4.24,4.24,0,0,1,2.88-4.46,4.44,4.44,0,0,1,4,1l5.4,7.7"/><path class="cls-2" d="M71.45,17.3,70.36,6.78A4.26,4.26,0,0,1,75,4.15a4.43,4.43,0,0,1,3,2.77l1.23,9.32"/><path class="cls-2" d="M94,13.86l.08-10.59A4.26,4.26,0,0,1,99,1.17a4.43,4.43,0,0,1,2.72,3.08c.07,3.14.14,6.27.2,9.41"/><path class="cls-2" d="M180.9,80.21l10.19-2.87a4.28,4.28,0,0,0,.74-5.26,4.5,4.5,0,0,0-3.7-1.81L179,72.57"/><path class="cls-2" d="M172.8,59.28l9.27-5.11a4.26,4.26,0,0,0-.48-5.29,4.45,4.45,0,0,0-4-.92l-8.36,4.31"/><path class="cls-2" d="M159.9,41.32l7.9-7a4.25,4.25,0,0,0-1.63-5.05,4.46,4.46,0,0,0-4.12,0l-7.19,6.05"/><path class="cls-2" d="M143.19,26.82,149,18a4.25,4.25,0,0,0-2.87-4.46,4.43,4.43,0,0,0-4,1l-5.4,7.7"/><path class="cls-2" d="M124.58,17.3l1.09-10.52a4.25,4.25,0,0,0-4.61-2.63,4.45,4.45,0,0,0-3,2.77l-1.23,9.32"/><path class="cls-2" d="M13.54,103.27,3,102.39a4.27,4.27,0,0,1-1.73-5,4.48,4.48,0,0,1,3.29-2.48l9.39.52"/><path class="cls-2" d="M182.33,101.55l10.55-.88a4.26,4.26,0,0,0,1.73-5,4.43,4.43,0,0,0-3.28-2.48l-9.39.52"/><path class="cls-1" d="M125.4,78a1.36,1.36,0,0,0-.12-.17l-.22-.3c-.13-.27.1-.67.37-1.17l.06-.09c.71-1.19,26.34-25.33,27.6-27.17a1.76,1.76,0,0,1,.86-.71,2.08,2.08,0,0,1,1.37.13,4.13,4.13,0,0,1,1.3.83"/><line class="cls-3" x1="46.96" y1="41.53" x2="76.84" y2="71.29"/><path class="cls-3" d="M70.54,77.8C61,68,50.64,57.48,41.05,47.65"/><path class="cls-1" d="M173.27,104.41a77.65,77.65,0,0,1-3.2,17.76,76.78,76.78,0,0,1-13.34,24.88"/><path class="cls-1" d="M40.91,148.9c-5.77-7.15-16.73-23.33-18.29-44.49"/><path class="cls-1" d="M147.4,156.68c-9.52,9.81-26.66,14.81-26.66,14.81a80.48,80.48,0,0,1-22.3,3.37h-1c-24.93-.17-43.8-14-50.44-19.63"/><path class="cls-1" d="M117.47,125.89l.37-.29a6.41,6.41,0,0,1,.83-.5c.26-.14.77.28,1.23.8,0,0,.06.09.07.09,1.2.69,25.76,25.93,27.62,27.15a2.4,2.4,0,0,1,.58.94,3.14,3.14,0,0,1,0,1.28,4.17,4.17,0,0,1-.81,1.32"/><path class="cls-1" d="M14.09,104.4a84,84,0,0,0,83.85,79h0a84,84,0,0,0,83.85-79"/><path class="cls-2" d="M15.13,116.51,5,119.38a4.26,4.26,0,0,0-.74,5.26,4.44,4.44,0,0,0,3.69,1.81l9.12-2.3"/><path class="cls-2" d="M23.23,137.44,14,142.55a4.26,4.26,0,0,0,.47,5.29,4.42,4.42,0,0,0,4,.92l8.36-4.31"/><path class="cls-2" d="M36.14,155.41l-7.91,7a4.29,4.29,0,0,0,1.63,5.06,4.49,4.49,0,0,0,4.12,0l7.19-6.06"/><path class="cls-2" d="M52.84,169.9,47,178.73a4.26,4.26,0,0,0,2.88,4.47,4.46,4.46,0,0,0,4-1l5.4-7.7"/><path class="cls-2" d="M71.45,179.42,70.36,190A4.29,4.29,0,0,0,75,192.58a4.47,4.47,0,0,0,3-2.77l1.23-9.33"/><path class="cls-2" d="M94,182.87l.08,10.58a4.26,4.26,0,0,0,4.87,2.1,4.42,4.42,0,0,0,2.72-3.08q.1-4.71.2-9.4"/><path class="cls-2" d="M180.9,116.51l10.19,2.87a4.28,4.28,0,0,1,.74,5.26,4.47,4.47,0,0,1-3.7,1.81l-9.12-2.3"/><path class="cls-2" d="M172.8,137.44l9.27,5.11a4.26,4.26,0,0,1-.48,5.29,4.42,4.42,0,0,1-4,.92l-8.36-4.31"/><path class="cls-2" d="M159.9,155.41l7.9,7a4.26,4.26,0,0,1-1.63,5.06,4.49,4.49,0,0,1-4.12,0l-7.19-6.06"/><path class="cls-2" d="M143.19,169.9l5.83,8.83a4.26,4.26,0,0,1-2.87,4.47,4.45,4.45,0,0,1-4-1l-5.4-7.7"/><path class="cls-2" d="M124.58,179.42,125.67,190a4.28,4.28,0,0,1-4.61,2.63,4.5,4.5,0,0,1-3-2.77l-1.23-9.33"/><path class="cls-1" d="M125.12,118.53a1.36,1.36,0,0,1-.12.17l-.22.3c-.13.27.1.67.37,1.17l.06.09c.71,1.19,26.34,25.33,27.6,27.17a2.46,2.46,0,0,0,1,.59,2.9,2.9,0,0,0,1.46.19,17.77,17.77,0,0,0,1.64-1.34"/><line class="cls-3" x1="46.96" y1="155.2" x2="77.27" y2="125"/><line class="cls-3" x1="70.68" y1="118.57" x2="40.97" y2="149.04"/><path class="cls-4" d="M98.53,64.56h-1A32.9,32.9,0,0,0,64.62,97.47v1a32.91,32.91,0,0,0,32.91,32.91h1a32.92,32.92,0,0,0,32.91-32.91v-1A32.91,32.91,0,0,0,98.53,64.56ZM123.75,98A25.71,25.71,0,0,1,98,123.69h0A25.72,25.72,0,0,1,72.3,98h0A25.73,25.73,0,0,1,98,72.24h0A25.72,25.72,0,0,1,123.75,98Z"/><path class="cls-5" d="M17.27,101.28c-.34-47.08,37.23-84.76,84-84"/><path class="cls-5" d="M17.87,95.44a82.32,82.32,0,0,0,84,84"/><path class="cls-5" d="M177.87,100.35c.55-48.09-35.8-84.12-83.1-83.1"/><path class="cls-5" d="M177.87,99.21c-1.39,42.94-32.58,77.58-76.6,80.23"/><path class="cls-2" d="M70.68,76.4,42,47.81a3.81,3.81,0,0,1,0-5.38h0a3.81,3.81,0,0,1,5.38,0l30,31.38c1.49,1.48-1.14,2.71-2.62,4.2L76,75.24C74.53,76.73,72.16,77.88,70.68,76.4Z"/><path class="cls-2" d="M120.09,71.47l28.43-28.81a3.81,3.81,0,0,1,5.38,0h0a3.8,3.8,0,0,1,0,5.38L122.72,78.21c-1.48,1.49-2.72-1.13-4.22-2.61l2.77,1.2C119.78,75.32,118.61,73,120.09,71.47Z"/><path class="cls-2" d="M148.9,154.17l-28.66-28.58a3.81,3.81,0,0,1,0-5.38h0a3.8,3.8,0,0,1,5.38,0l30,31.37c1.49,1.49-1.14,2.72-2.62,4.2l1.21-2.76C152.75,154.51,150.38,155.66,148.9,154.17Z"/><path class="cls-2" d="M42.46,149l28.16-29.08A3.78,3.78,0,0,1,76,119.8h0a3.79,3.79,0,0,1,.09,5.37l-30.93,30.5c-1.47,1.51-2.74-1.1-4.24-2.56l2.78,1.17C42.18,152.82,41,150.46,42.46,149Z"/></g></g></svg>