<svg xmlns="http://www.w3.org/2000/svg" viewBox="0 0 195.88 196.72"><defs><style>.cls-1,.cls-2{fill:none;stroke:#1a5d57;stroke-miterlimit:10;stroke-width:2px;}.cls-2{stroke-linecap:round;}</style></defs><g id="Layer_2" data-name="Layer 2"><g id="Layer_1-2" data-name="Layer 1"><path class="cls-1" d="M173,105.15a69.28,69.28,0,0,0,.44-7.29v-1a79.16,79.16,0,0,0-3.37-22.3,76.74,76.74,0,0,0-13.34-24.89"/><path class="cls-1" d="M41.05,47.65C34.92,55.2,22.61,73.3,22.44,96.86v1a69.28,69.28,0,0,0,.44,7.29"/><path class="cls-1" d="M147.4,40c-9.52-9.8-26.66-14.81-26.66-14.81a80.86,80.86,0,0,0-22.3-3.37h-1C72.6,22,53.77,35.78,47.06,41.44"/><path class="cls-1" d="M118.24,70.78l.17.13.29.22c.27.14.68-.08,1.18-.35l.09,0c1.2-.69,25.76-25.93,27.62-27.15a1.72,1.72,0,0,0,.72-.85,2,2,0,0,0-.1-1.37A4.17,4.17,0,0,0,147.4,40"/><path class="cls-1" d="M77.07,71.21a33.87,33.87,0,0,1,20.87-7.15h0a35.86,35.86,0,0,1,20.3,6.72"/><path class="cls-1" d="M70.52,118.17a33.81,33.81,0,0,1-6.58-20.11h0a33.8,33.8,0,0,1,1.53-10.12A35.6,35.6,0,0,1,70.54,77.8"/><path class="cls-1" d="M118.13,125.41a33.8,33.8,0,0,1-20.19,6.65h0a33.85,33.85,0,0,1-20.51-6.88"/><path class="cls-1" d="M125.14,77.8c5,7.16,6.39,15.49,6.8,20.26h0a33.78,33.78,0,0,1-6.86,20.47"/><rect class="cls-1" x="71.44" y="70.86" width="53" height="53" rx="26.5"/><path class="cls-1" d="M14.29,105.15q-.34-3.86-.35-7.79h0a84,84,0,0,1,84-84h0a84,84,0,0,1,84,84h0c0,2.61-.12,5.2-.36,7.75"/><path class="cls-1" d="M15.13,80.21,5,77.34a4.25,4.25,0,0,1-.74-5.26A4.47,4.47,0,0,1,7.9,70.27L17,72.57"/><path class="cls-1" d="M23.23,59.28,14,54.17a4.26,4.26,0,0,1,.47-5.29,4.45,4.45,0,0,1,4-.92l8.36,4.31"/><path class="cls-1" d="M36.14,41.32l-7.91-7a4.28,4.28,0,0,1,1.63-5.05,4.46,4.46,0,0,1,4.12,0l7.19,6.05"/><path class="cls-1" d="M52.84,26.82,47,18a4.24,4.24,0,0,1,2.88-4.46,4.44,4.44,0,0,1,4,1l5.4,7.7"/><path class="cls-1" d="M71.45,17.3,70.36,6.78A4.26,4.26,0,0,1,75,4.15a4.43,4.43,0,0,1,3,2.77l1.23,9.32"/><path class="cls-1" d="M94,13.86l.08-10.59A4.26,4.26,0,0,1,99,1.17a4.43,4.43,0,0,1,2.72,3.08c.07,3.14.14,6.27.2,9.41"/><path class="cls-1" d="M180.9,80.21l10.19-2.87a4.28,4.28,0,0,0,.74-5.26,4.5,4.5,0,0,0-3.7-1.81L179,72.57"/><path class="cls-1" d="M172.8,59.28l9.27-5.11a4.26,4.26,0,0,0-.48-5.29,4.45,4.45,0,0,0-4-.92l-8.36,4.31"/><path class="cls-1" d="M159.9,41.32l7.9-7a4.25,4.25,0,0,0-1.63-5.05,4.46,4.46,0,0,0-4.12,0l-7.19,6.05"/><path class="cls-1" d="M143.19,26.82,149,18a4.25,4.25,0,0,0-2.87-4.46,4.43,4.43,0,0,0-4,1l-5.4,7.7"/><path class="cls-1" d="M124.58,17.3l1.09-10.52a4.25,4.25,0,0,0-4.61-2.63,4.45,4.45,0,0,0-3,2.77l-1.23,9.32"/><path class="cls-1" d="M13.54,103.27,3,102.39a4.27,4.27,0,0,1-1.73-5,4.48,4.48,0,0,1,3.29-2.48l9.39.52"/><path class="cls-1" d="M182.33,101.55l10.55-.88a4.26,4.26,0,0,0,1.73-5,4.43,4.43,0,0,0-3.28-2.48l-9.39.52"/><path class="cls-1" d="M125.4,78a1.36,1.36,0,0,0-.12-.17l-.22-.3c-.13-.27.1-.67.37-1.17l.06-.09c.71-1.19,26.34-25.33,27.6-27.17a1.76,1.76,0,0,1,.86-.71,2.08,2.08,0,0,1,1.37.13,4.13,4.13,0,0,1,1.3.83"/><line class="cls-2" x1="46.96" y1="41.53" x2="76.84" y2="71.29"/><path class="cls-2" d="M70.54,77.8C61,68,50.64,57.48,41.05,47.65"/><path class="cls-1" d="M173.27,104.41a77.65,77.65,0,0,1-3.2,17.76,76.78,76.78,0,0,1-13.34,24.88"/><path class="cls-1" d="M40.91,148.9c-5.77-7.15-16.73-23.33-18.29-44.49"/><path class="cls-1" d="M147.4,156.68c-9.52,9.81-26.66,14.81-26.66,14.81a80.48,80.48,0,0,1-22.3,3.37h-1c-24.93-.17-43.8-14-50.44-19.63"/><path class="cls-1" d="M117.47,125.89l.37-.29a6.41,6.41,0,0,1,.83-.5c.26-.14.77.28,1.23.8,0,0,.06.09.07.09,1.2.69,25.76,25.93,27.62,27.15a2.4,2.4,0,0,1,.58.94,3.14,3.14,0,0,1,0,1.28,4.17,4.17,0,0,1-.81,1.32"/><path class="cls-1" d="M14.09,104.4a84,84,0,0,0,83.85,79h0a84,84,0,0,0,83.85-79"/><path class="cls-1" d="M15.13,116.51,5,119.38a4.26,4.26,0,0,0-.74,5.26,4.44,4.44,0,0,0,3.69,1.81l9.12-2.3"/><path class="cls-1" d="M23.23,137.44,14,142.55a4.26,4.26,0,0,0,.47,5.29,4.42,4.42,0,0,0,4,.92l8.36-4.31"/><path class="cls-1" d="M36.14,155.41l-7.91,7a4.29,4.29,0,0,0,1.63,5.06,4.49,4.49,0,0,0,4.12,0l7.19-6.06"/><path class="cls-1" d="M52.84,169.9,47,178.73a4.26,4.26,0,0,0,2.88,4.47,4.46,4.46,0,0,0,4-1l5.4-7.7"/><path class="cls-1" d="M71.45,179.42,70.36,190A4.29,4.29,0,0,0,75,192.58a4.47,4.47,0,0,0,3-2.77l1.23-9.33"/><path class="cls-1" d="M94,182.87l.08,10.58a4.26,4.26,0,0,0,4.87,2.1,4.42,4.42,0,0,0,2.72-3.08q.1-4.71.2-9.4"/><path class="cls-1" d="M180.9,116.51l10.19,2.87a4.28,4.28,0,0,1,.74,5.26,4.47,4.47,0,0,1-3.7,1.81l-9.12-2.3"/><path class="cls-1" d="M172.8,137.44l9.27,5.11a4.26,4.26,0,0,1-.48,5.29,4.42,4.42,0,0,1-4,.92l-8.36-4.31"/><path class="cls-1" d="M159.9,155.41l7.9,7a4.26,4.26,0,0,1-1.63,5.06,4.49,4.49,0,0,1-4.12,0l-7.19-6.06"/><path class="cls-1" d="M143.19,169.9l5.83,8.83a4.26,4.26,0,0,1-2.87,4.47,4.45,4.45,0,0,1-4-1l-5.4-7.7"/><path class="cls-1" d="M124.58,179.42,125.67,190a4.28,4.28,0,0,1-4.61,2.63,4.5,4.5,0,0,1-3-2.77l-1.23-9.33"/><path class="cls-1" d="M125.12,118.53a1.36,1.36,0,0,1-.12.17l-.22.3c-.13.27.1.67.37,1.17l.06.09c.71,1.19,26.34,25.33,27.6,27.17a2.46,2.46,0,0,0,1,.59,2.9,2.9,0,0,0,1.46.19,17.77,17.77,0,0,0,1.64-1.34"/><line class="cls-2" x1="46.96" y1="155.2" x2="77.27" y2="125"/><line class="cls-2" x1="70.68" y1="118.57" x2="40.97" y2="149.04"/></g></g></svg>